<?xml version="1.0" encoding="UTF-8" standalone="no"?>
<!-- Created with Inkscape (http://www.inkscape.org/) -->

<svg
   width="537.96216"
   height="130.51123"
   viewBox="0 0 537.96217 130.51123"
   version="1.1"
   id="svg1"
   inkscape:version="1.3.2 (091e20e, 2023-11-25)"
   sodipodi:docname="Logotipo Demo.svg"
   xmlns:inkscape="http://www.inkscape.org/namespaces/inkscape"
   xmlns:sodipodi="http://sodipodi.sourceforge.net/DTD/sodipodi-0.dtd"
   xmlns="http://www.w3.org/2000/svg"
   xmlns:svg="http://www.w3.org/2000/svg">
  <sodipodi:namedview
     id="namedview1"
     pagecolor="#ffffff"
     bordercolor="#999999"
     borderopacity="1"
     inkscape:showpageshadow="2"
     inkscape:pageopacity="0"
     inkscape:pagecheckerboard="0"
     inkscape:deskcolor="#d1d1d1"
     inkscape:document-units="px"
     showborder="false"
     showguides="true"
     inkscape:zoom="0.35355339"
     inkscape:cx="1298.248"
     inkscape:cy="799.03066"
     inkscape:window-width="1366"
     inkscape:window-height="696"
     inkscape:window-x="0"
     inkscape:window-y="0"
     inkscape:window-maximized="1"
     inkscape:current-layer="g127" />
  <defs
     id="defs1" />
  <g
     inkscape:groupmode="layer"
     id="g127"
     inkscape:label="lines 3 copy"
     transform="translate(-1414.7969,-331.59504)">
    <path
       id="path180"
       style="fill:#ffffff;stroke-linejoin:round"
       d="m 1640.7473,331.59644 a 10.19902,10.19902 0 0 0 -3.3164,0.49609 l -9.3906,3.04688 a 10.19902,10.19902 0 0 0 -7.291,-3.18165 h -16.166 -19.0918 a 10.19902,10.19902 0 0 0 -5.5606,18.7461 l 11.002,7.1582 v 35.27735 h -5.0899 l -16.0839,-48.24219 a 10.19902,10.19902 0 0 0 0,-0.002 c -2.5656,-7.68968 -9.8487,-12.93788 -17.9551,-12.9375 h -1.4239 c -8.1251,2.4e-4 -15.4173,5.29202 -17.9355,13.01758 a 10.19902,10.19902 0 0 0 0,0.002 l -20.332,62.40039 v -0.34375 a 10.19902,10.19902 0 0 0 0.062,-0.14649 v -17.57226 a 10.19902,10.19902 0 0 0 -0.2774,-0.66993 10.19902,10.19902 0 0 0 0.209,-0.50585 v -18.73243 a 10.19902,10.19902 0 0 0 -0.014,-0.0293 10.19902,10.19902 0 0 0 0.012,-0.041 l -0.055,-7.60937 v -19.51172 a 10.19902,10.19902 0 0 0 -10.1895,-10.19727 l -67.0332,-0.0605 a 10.19902,10.19902 0 0 0 -7.2422,3.00977 l -9.7734,9.83398 a 10.19902,10.19902 0 0 0 -2.9649,7.18165 l -0.049,75.46679 c -0.01,11.2602 9.3394,20.61291 20.5996,20.61524 h 32.9219 a 10.19902,10.19902 0 0 0 8.666,14.04101 h 24.9863 a 10.19902,10.19902 0 0 0 10.1973,-10.21289 l -0.01,-3.82812 h 18.875 a 10.19902,10.19902 0 0 0 0.07,-0.0293 h 2.4746 12.416 a 10.19902,10.19902 0 0 0 8.5332,14.07031 h 19.0937 0.6485 20.373 a 10.19902,10.19902 0 0 0 9.6758,-13.42187 l -0.1953,-0.58594 h 16.6191 a 10.19902,10.19902 0 0 0 5.4199,-1.55859 l 8.5235,-5.34571 a 10.19902,10.19902 0 0 0 -3.7442,-18.39453 v -20.15625 l 17.1875,11.07422 v 16.125 8.05664 a 10.19902,10.19902 0 0 0 2.918,7.14258 l 13.7402,14.00781 a 10.19902,10.19902 0 0 0 7.2793,3.05664 h 1.2325 1.2636 18.4786 36.7753 23.959 16.1543 a 10.19902,10.19902 0 0 0 9.6758,-13.42187 l -0.9492,-2.84961 c 2.7532,1.3797 5.8034,2.23074 9.0547,2.23047 h 32.3066 a 10.19902,10.19902 0 0 0 9.2774,14.04101 h 24.9863 a 10.19902,10.19902 0 0 0 10.1992,-10.21289 l -0.01,-4.37305 a 10.19902,10.19902 0 0 0 4.1329,-0.70703 10.19902,10.19902 0 0 0 3.0605,1.25782 l 51.3359,-0.16993 c 16.3087,-5.2e-4 29.7491,-13.44138 29.7481,-29.75 a 10.19902,10.19902 0 0 0 -10.1992,-10.19726 h -15.4766 a 10.19902,10.19902 0 0 0 3.6035,-7.4668 v -27.3789 a 10.19902,10.19902 0 0 0 -0.1972,-0.44532 h 2.0117 l 1.2402,2.14649 a 10.19902,10.19902 0 0 0 19.0293,-5.09961 v -7.2461 -20.30859 a 10.19902,10.19902 0 0 0 -10.1973,-10.19727 h -76.8808 a 10.19902,10.19902 0 0 0 -0.1465,0.0605 h -35.3301 a 10.19902,10.19902 0 0 0 -0.057,-0.0234 l -43.0156,-0.0371 a 10.19902,10.19902 0 0 0 -7.2422,3.00782 l -9.7754,9.83398 a 10.19902,10.19902 0 0 0 -2.9649,7.1836 l -0.025,40.91406 h -6.082 l -17.9961,-53.9668 a 10.19902,10.19902 0 0 0 -9.6738,-6.97266 h -14.0078 a 10.19902,10.19902 0 0 0 -9.6953,7.03907 l -22.0918,67.80859 v -3.74219 a 10.19902,10.19902 0 0 0 -5.2578,-8.91992 l -2.3125,-1.28125 c 4.2149,-5.32154 5.8718,-12.57935 3.6562,-19.45508 L 1672.5853,339.034 a 10.19902,10.19902 0 0 0 -9.5371,-7.06836 z m -0.1679,10.19531 22.3105,0.36914 11.0781,34.37305 c 1.8707,5.80526 -1.4589,12.00293 -7.332,13.64843 l -8.2988,2.32618 19.0527,10.55468 v 25.6836 l -6.1523,3.55273 h 6.1523 1.8438 63.289 l -2.9238,-9.00976 h -13.002 -33.6543 l 26.4336,-81.13477 h 14.0079 l 20.3203,60.93945 h 23.623 l 0.029,-51.10547 9.7754,-9.83398 43.0156,0.0371 v 0.0234 h 35.543 v -0.0605 h 76.8809 v 20.30859 7.2461 l -4.1836,-7.2461 -4.6114,-7.98828 v 7.98828 h -48.416 v 17.66602 h 29.9629 l 5.1641,-7.02148 v 27.3789 h -35.127 v 17.66406 l -19.6699,19.67383 v -76.0625 h -35.5449 v 0.002 l -27.9903,-0.002 -5.1875,5.75781 v 50.63086 h 36.8086 v -11.26367 h -14.6191 l -3.4199,5.92188 v -5.92188 -17.57226 h 38.4902 v 17.57226 l 0.061,45.01953 h -24.9863 l 4.4766,-2.22656 v -11.81445 h -46.0606 a 10.404455,10.404455 0 0 1 -10.4062,-10.41016 v -4.16601 h -16.875 l 4.8496,14.54687 h -0.035 l 4.6856,14.07031 h -16.1543 -23.959 -36.7754 -18.4785 -1.2637 -1.2324 l -13.7402,-14.00781 v -8.05664 -21.6875 l -30.7774,-19.82812 21.3106,-6.91407 c 2.1309,-0.69163 3.2961,-2.98129 2.6015,-5.11133 l -5.1797,-15.84765 -25.539,8.22851 v 63.8711 h 2.4707 6.0527 l -8.5234,5.3457 h -19.6192 -6.0546 l 6.0546,-3.49414 v -11.35742 h -16.0644 l 4.9316,14.78906 h -0.035 l 4.6875,14.07031 h -20.3731 -0.6484 -19.0938 l 13.9805,-9.09961 9.1152,-5.87109 h -8.8964 l -4.4258,-13.64648 h -26.0059 l -4.7168,14.54687 h -2.5449 v 0.0293 h -29.0879 l 0.018,14.04101 h -24.9863 l 4.4746,-2.22656 v -8.0957 -14.64453 l -1.959,10.92578 h -4.3203 -1.7832 -38 a 10.404455,10.404455 0 0 1 -10.4024,-10.41016 l 0.049,-75.4668 9.7734,-9.83398 67.0332,0.0605 v 6.50781 h -23.6816 l 23.6816,3.9707 v 9.06836 l 0.053,7.64453 -4.8281,-7.64257 -47.2363,-0.002 -5.1875,5.75781 v 50.63086 h 36.8105 v -11.26367 h -14.5566 l -3.4199,5.92188 v -5.92188 -17.57226 h 38.4882 v 17.57226 h -0.062 l 0.018,11.26367 h 17.3985 l 22.8125,-70.01562 a 8.6662143,8.6662143 0 0 1 8.2402,-5.98047 h 1.4258 a 8.7295664,8.7295664 0 0 1 8.2812,5.9668 l 18.4102,55.21484 h 22.6367 v -51.00586 l -15.6387,-10.17578 h 19.0918 16.166 v 6.07031 z m -89.5879,40.82617 -4.793,15.99024 -10.3535,4.48437 h 9.0098 1.3437 11.5606 z m 175.2871,0 -5.2266,17.44531 -5.248,3.0293 h 4.3398 2.7539 10.1504 z m 123.498,14.23047 -6.3203,5.99414 6.3203,13.94336 z m 41.5821,21.30273 h 51.2011 a 19.549523,19.549523 0 0 1 -19.5488,19.55079 l -51.3711,0.16992 z" />
  </g>
</svg>
